<svg width="646" height="562" viewBox="0 0 646 562" fill="none" xmlns="http://www.w3.org/2000/svg">
<g clip-path="url(#clip0_1_143)">
<g opacity="0.4">
<path d="M-0.000183105 130.51L43.7563 108.79" stroke="#42B837" stroke-width="2.98974"/>
<path opacity="0.4" d="M24.1894 175.859L73.8185 151.224" stroke="#42B837" stroke-width="2.98974"/>
<path d="M20.1543 139.579L51.705 123.918" stroke="#42B837" stroke-width="2.98974"/>
<path d="M60.3414 119.631L91.8921 103.97" stroke="#42B837" stroke-width="2.98974"/>
<path opacity="0.44" d="M54.6959 103.36L154.991 53.5747" stroke="#42B837" stroke-width="2.98974"/>
<path d="M-0.000183105 383.125L43.7563 361.405" stroke="#42B837" stroke-width="2.98974"/>
<path opacity="0.44" d="M54.6959 355.974L154.991 306.189" stroke="#42B837" stroke-width="2.98974"/>
<path d="M171.456 45.4015L205.425 28.5396" stroke="#42B837" stroke-width="2.98974"/>
<path d="M160.404 50.8881L166.737 47.7444" stroke="#42B837" stroke-width="2.98974"/>
<path d="M99.836 100.027L106.169 96.8835" stroke="#42B837" stroke-width="2.98974"/>
<path d="M76.8119 149.738L83.1451 146.594" stroke="#42B837" stroke-width="2.98974"/>
<path d="M88.7311 143.822L123.909 126.36" stroke="#42B837" stroke-width="2.98974"/>
<path opacity="0.4" d="M196.538 90.3072L236.753 70.3445" stroke="#42B837" stroke-width="2.98974"/>
<path d="M142.822 116.971L182.98 97.037" stroke="#42B837" stroke-width="2.98974"/>
<path d="M130.933 122.873L137.266 119.729" stroke="#42B837" stroke-width="2.98974"/>
<path d="M186.204 95.4379L192.537 92.2942" stroke="#42B837" stroke-width="2.98974"/>
<path d="M245.045 66.2301L251.378 63.0863" stroke="#42B837" stroke-width="2.98974"/>
<path d="M258.401 59.599L264.734 56.4553" stroke="#42B837" stroke-width="2.98974"/>
<path d="M272.796 52.4537L279.129 49.31" stroke="#42B837" stroke-width="2.98974"/>
<path d="M112.157 93.909L126.205 86.9356" stroke="#42B837" stroke-width="2.98974"/>
<path opacity="0.4" d="M45.2648 185.57L76.8155 169.909" stroke="#42B837" stroke-width="2.98974"/>
<path d="M85.4519 165.621L106.179 155.333" stroke="#42B837" stroke-width="2.98974"/>
<path d="M113.837 151.531L120.17 148.387" stroke="#42B837" stroke-width="2.98974"/>
<path d="M202.326 107.605L208.659 104.461" stroke="#42B837" stroke-width="2.98974"/>
<path d="M322.772 47.8158L329.105 44.6721" stroke="#42B837" stroke-width="2.98974"/>
<path d="M333.366 42.5582L339.699 39.4145" stroke="#42B837" stroke-width="2.98974"/>
<path d="M344.191 37.1852L350.524 34.0415" stroke="#42B837" stroke-width="2.98974"/>
<path d="M354.322 32.1559L360.655 29.0122" stroke="#42B837" stroke-width="2.98974"/>
<path opacity="0.4" d="M126.214 145.385L156.152 130.524" stroke="#42B837" stroke-width="2.98974"/>
<path d="M45.2674 205.053L76.8181 189.392" stroke="#42B837" stroke-width="2.98974"/>
<path d="M85.4541 185.104L117.005 169.443" stroke="#42B837" stroke-width="2.98974"/>
<path d="M124.949 165.499L131.282 162.355" stroke="#42B837" stroke-width="2.98974"/>
<path d="M137.27 159.382L161.797 147.207" stroke="#42B837" stroke-width="2.98974"/>
<path d="M206.822 124.858L236.761 109.997" stroke="#42B837" stroke-width="2.98974"/>
<path d="M245.049 105.882L307.229 75.0164" stroke="#42B837" stroke-width="2.98974"/>
<path d="M311.029 73.1305L316.441 70.444" stroke="#42B837" stroke-width="2.98974"/>
<path d="M334.29 61.5836L339.702 58.8971" stroke="#42B837" stroke-width="2.98974"/>
<path d="M322.775 67.3006L328.187 64.6141" stroke="#42B837" stroke-width="2.98974"/>
<path d="M346.035 55.7533L351.447 53.0668" stroke="#42B837" stroke-width="2.98974"/>
<path d="M357.492 50.0675L362.904 47.381" stroke="#42B837" stroke-width="2.98974"/>
<path d="M368.086 44.8077L373.498 42.1212" stroke="#42B837" stroke-width="2.98974"/>
<path d="M45.2699 224.536L76.8206 208.875" stroke="#42B837" stroke-width="2.98974"/>
<path d="M85.457 204.587L117.008 188.926" stroke="#42B837" stroke-width="2.98974"/>
<path d="M124.952 184.982L131.285 181.838" stroke="#42B837" stroke-width="2.98974"/>
<path d="M173.646 160.811L183.673 155.834" stroke="#42B837" stroke-width="2.98974"/>
<path d="M292.711 101.708L308.385 93.9274" stroke="#42B837" stroke-width="2.98974"/>
<path d="M313.435 91.4215L322.776 86.7845" stroke="#42B837" stroke-width="2.98974"/>
<path d="M137.273 178.867L169.284 162.977" stroke="#42B837" stroke-width="2.98974"/>
<path d="M162.582 127.333L194.726 111.377" stroke="#42B837" stroke-width="2.98974"/>
<path d="M217.97 99.8392L250.114 83.883" stroke="#42B837" stroke-width="2.98974"/>
<path d="M256.725 80.6022L319.087 49.6462" stroke="#42B837" stroke-width="2.98974"/>
<path d="M168.016 144.121L199.682 128.403" stroke="#42B837" stroke-width="2.98974"/>
<path d="M188.4 153.488L220.411 137.598" stroke="#42B837" stroke-width="2.98974"/>
<path d="M226.399 134.626L289.155 103.475" stroke="#42B837" stroke-width="2.98974"/>
</g>
<path d="M45.275 262.955L87.3043 242.092" stroke="#42B837" stroke-width="2.98974"/>
<path d="M32.0986 340.053V250.09L458.667 40.8381V130.801L32.0986 340.053Z" stroke="#28234A" stroke-linecap="round" stroke-linejoin="round" stroke-dasharray="2 6"/>
<path d="M78.0941 266.148L155.013 227.966" stroke="#42B837" stroke-width="2.98974"/>
<path d="M78.0965 285.631L129.683 260.024" stroke="#42B837" stroke-width="2.98974"/>
<path d="M172.041 238.998L202.113 224.071" stroke="#42B837" stroke-width="2.98974"/>
<path d="M220.42 214.983L250.492 200.056" stroke="#42B837" stroke-width="2.98974"/>
<path d="M268.552 191.091L305.399 172.8" stroke="#42B837" stroke-width="2.98974"/>
<path d="M207.295 221.499L214.204 218.07" stroke="#42B837" stroke-width="2.98974"/>
<path d="M254.33 198.15L261.239 194.721" stroke="#42B837" stroke-width="2.98974"/>
<path d="M202.11 204.587L254.618 178.523" stroke="#42B837" stroke-width="2.98974"/>
<path d="M178.159 216.476L187.486 211.846" stroke="#42B837" stroke-width="2.98974"/>
<path d="M190.364 210.417L199.691 205.787" stroke="#42B837" stroke-width="2.98974"/>
<path d="M258.762 176.466L357.501 127.453" stroke="#42B837" stroke-width="2.98974"/>
<path d="M362.913 124.766L427.799 92.5571" stroke="#42B837" stroke-width="2.98974"/>
<path d="M432.005 90.4701L447.032 83.0109" stroke="#42B837" stroke-width="2.98974"/>
<path d="M95.9971 237.776L138.026 216.913" stroke="#42B837" stroke-width="2.98974"/>
<path d="M146.719 212.599L155.01 208.484" stroke="#42B837" stroke-width="2.98974"/>
<path d="M159.733 206.139L168.024 202.024" stroke="#42B837" stroke-width="2.98974"/>
<path d="M47.1248 320.217L55.4155 316.102" stroke="#42B837" stroke-width="2.98974"/>
<path d="M24.2125 351.899L32.5032 347.784" stroke="#42B837" stroke-width="2.98974"/>
<path d="M172.036 200.032L180.327 195.917" stroke="#42B837" stroke-width="2.98974"/>
<path d="M281.3 34.1207L290.364 38.6526L356.693 5.53194L347.629 1L281.3 34.1207Z" fill="#FFF7F7" stroke="#28234A" stroke-miterlimit="10" stroke-linecap="round" stroke-linejoin="round"/>
<path d="M281.3 84.2054L290.271 88.6906V38.8983L281.3 34.4131V84.2054Z" fill="#FFF7F7" stroke="#28234A" stroke-miterlimit="10" stroke-linecap="round" stroke-linejoin="round"/>
<path d="M290.272 88.5722L356.683 55.3664V5.55786L290.272 38.7636V88.5722Z" fill="#FFF7F7" stroke="#28234A" stroke-miterlimit="10" stroke-linecap="round" stroke-linejoin="round"/>
<path d="M139.992 344.923L158.828 354.341L296.668 285.512L277.832 276.094L139.992 344.923Z" fill="#FFF7F7" stroke="#28234A" stroke-miterlimit="10" stroke-linecap="round" stroke-linejoin="round"/>
<path d="M139.992 464.549L158.634 473.87V354.203L139.992 344.882V464.549Z" fill="#FFF7F7" stroke="#28234A" stroke-miterlimit="10" stroke-linecap="round" stroke-linejoin="round"/>
<path d="M158.634 473.626L296.646 404.62V285.351L158.634 354.357V473.626Z" fill="white" stroke="#28234A" stroke-miterlimit="10" stroke-linecap="round" stroke-linejoin="round"/>
<path d="M83.8782 159.207L102.714 168.625L240.554 99.7959L221.718 90.3779L83.8782 159.207Z" fill="#FFF7F7" stroke="#28234A" stroke-miterlimit="10" stroke-linecap="round" stroke-linejoin="round"/>
<path d="M83.8775 296.322L102.519 305.643V168.488L83.8775 159.167V296.322Z" fill="#FFF7F7" stroke="#28234A" stroke-miterlimit="10" stroke-linecap="round" stroke-linejoin="round"/>
<path d="M102.519 305.644L240.532 236.638V99.8511L102.519 168.857V305.644Z" fill="#FFF7F7" stroke="#28234A" stroke-miterlimit="10" stroke-linecap="round" stroke-linejoin="round"/>
<path d="M220.033 469.198V204.077L545.393 41.3967V306.518L220.033 469.198Z" fill="#FFF7F7" stroke="#28234A" stroke-miterlimit="10" stroke-linecap="round" stroke-linejoin="round"/>
<path d="M233.348 214.692C234.324 213.436 234.498 211.938 233.738 211.347C232.977 210.756 231.569 211.295 230.593 212.551C229.617 213.807 229.442 215.304 230.203 215.895C230.964 216.487 232.372 215.948 233.348 214.692Z" fill="white" stroke="#28234A" stroke-miterlimit="10" stroke-linecap="round" stroke-linejoin="round"/>
<path d="M242.322 210.121C243.298 208.865 243.472 207.368 242.711 206.776C241.951 206.185 240.543 206.724 239.567 207.98C238.591 209.236 238.416 210.733 239.177 211.325C239.938 211.916 241.346 211.377 242.322 210.121Z" fill="white" stroke="#28234A" stroke-miterlimit="10" stroke-linecap="round" stroke-linejoin="round"/>
<path d="M251.294 205.551C252.27 204.295 252.444 202.798 251.683 202.206C250.922 201.615 249.514 202.154 248.538 203.41C247.562 204.666 247.388 206.163 248.149 206.755C248.91 207.346 250.318 206.807 251.294 205.551Z" fill="white" stroke="#28234A" stroke-miterlimit="10" stroke-linecap="round" stroke-linejoin="round"/>
<path d="M235.117 233.483L297.428 202.327" stroke="#28234A" stroke-miterlimit="10" stroke-linecap="round" stroke-linejoin="round"/>
<path d="M236.238 284.48V263.862L262.021 250.97V271.589L236.238 284.48Z" fill="white" stroke="#28234A" stroke-miterlimit="10" stroke-linecap="round" stroke-linejoin="round"/>
<path d="M236.238 312.174V291.556L262.021 278.664V299.282L236.238 312.174Z" fill="white" stroke="#28234A" stroke-miterlimit="10" stroke-linecap="round" stroke-linejoin="round"/>
<path d="M236.238 339.867V319.249L262.021 306.358V326.976L236.238 339.867Z" fill="white" stroke="#28234A" stroke-miterlimit="10" stroke-linecap="round" stroke-linejoin="round"/>
<path d="M500.004 104.557V83.9252L525.787 71.0337V91.6656L500.004 104.557Z" fill="white" stroke="#28234A" stroke-width="1.06896" stroke-miterlimit="10" stroke-linecap="round" stroke-linejoin="round"/>
<path d="M500.003 99.806L525.786 86.9146" stroke="#28234A" stroke-width="1.06896" stroke-miterlimit="10" stroke-linecap="round" stroke-linejoin="round"/>
<path d="M500.003 95.0534L525.786 82.1619" stroke="#28234A" stroke-width="1.06896" stroke-miterlimit="10" stroke-linecap="round" stroke-linejoin="round"/>
<path d="M500.003 89.6671L525.786 76.7756" stroke="#28234A" stroke-width="1.06896" stroke-miterlimit="10" stroke-linecap="round" stroke-linejoin="round"/>
<path d="M500.003 95.0534V84.032L513.776 77.1455V88.1669L500.003 95.0534Z" fill="white" stroke="#28234A" stroke-width="1.06896" stroke-miterlimit="10" stroke-linecap="round" stroke-linejoin="round"/>
<path d="M501.633 86.9268L511.51 81.9883" stroke="#28234A" stroke-width="1.06896" stroke-miterlimit="10" stroke-linecap="round" stroke-linejoin="round" stroke-dasharray="1 3"/>
<path d="M501.633 90.2108L511.51 85.2722" stroke="#28234A" stroke-width="1.06896" stroke-miterlimit="10" stroke-linecap="round" stroke-linejoin="round" stroke-dasharray="1 3"/>
<path d="M449.921 151.869L496.992 128.333" stroke="#28234A" stroke-miterlimit="10" stroke-linecap="round" stroke-linejoin="round"/>
<path d="M449.921 170.606L524.871 133.132" stroke="#28234A" stroke-miterlimit="10" stroke-linecap="round" stroke-linejoin="round"/>
<path d="M449.921 179.026L524.871 141.552" stroke="#28234A" stroke-miterlimit="10" stroke-linecap="round" stroke-linejoin="round"/>
<path d="M449.921 187.446L524.871 149.971" stroke="#28234A" stroke-miterlimit="10" stroke-linecap="round" stroke-linejoin="round"/>
<path d="M449.924 234.784L524.873 196.941V215.414L449.924 253.278V234.784Z" fill="white" stroke="#28234A" stroke-miterlimit="10" stroke-linecap="round" stroke-linejoin="round"/>
<path d="M454.667 242.191L461.434 238.812" stroke="#28234A" stroke-miterlimit="10" stroke-linecap="round" stroke-linejoin="round"/>
<path d="M458.047 237.443V243.774" stroke="#28234A" stroke-miterlimit="10" stroke-linecap="round" stroke-linejoin="round"/>
<path d="M449.923 208.449L524.873 170.606V189.079L449.923 226.943V208.449Z" fill="white" stroke="#28234A" stroke-miterlimit="10" stroke-linecap="round" stroke-linejoin="round"/>
<path d="M568.348 231.352C567.452 230.801 566.351 230.755 565.41 231.214L503.114 262.362C502.081 262.867 501.438 263.923 501.438 265.071V389.639C501.438 390.695 501.989 391.659 502.884 392.21C503.366 392.508 503.917 392.669 504.468 392.669C504.927 392.669 505.386 392.554 505.822 392.348L568.118 361.2C569.151 360.695 569.794 359.639 569.794 358.491V233.923C569.794 232.89 569.243 231.903 568.348 231.352Z" fill="#FFF7F7" stroke="#28234A" stroke-miterlimit="10" stroke-linecap="round" stroke-linejoin="round"/>
<path d="M507.496 266.815L569.792 235.69V360.258L507.496 391.383V266.815Z" fill="white" stroke="#28234A" stroke-width="1.06896" stroke-miterlimit="10" stroke-linecap="round" stroke-linejoin="round"/>
<path d="M540.703 368.151C542.197 366.229 542.466 363.939 541.305 363.037C540.144 362.135 537.992 362.961 536.498 364.883C535.005 366.805 534.735 369.094 535.896 369.997C537.058 370.899 539.21 370.072 540.703 368.151Z" fill="#FFF7F7" stroke="#28234A" stroke-width="1.06896" stroke-miterlimit="10" stroke-linecap="round" stroke-linejoin="round"/>
<path d="M324.475 34.8039L324.475 34.8039C322.821 35.6249 321.48 37.6219 321.48 39.2643L321.482 48.2521C321.482 49.8945 322.823 50.5603 324.477 49.7393L324.477 49.7393C326.131 48.9182 327.471 46.9212 327.471 45.2789L327.47 36.2911C327.47 34.6487 326.129 33.9829 324.475 34.8039Z" fill="#FFF7F7" stroke="#28234A" stroke-width="0.996581"/>
<path d="M331.42 42.4535C331.42 47.0218 328.313 52.2679 324.479 54.171C320.645 56.0741 317.537 53.9135 317.536 49.3452" stroke="#28234A"/>
<path d="M325.09 54.5692L323.869 55.1755L323.87 59.6318L325.091 59.0255L325.09 54.5692Z" fill="#28234A"/>
<path d="M171.114 215.187L157.937 211.378L157.935 195.48L171.109 178.327L184.659 182.218L184.661 198.108L171.114 215.187Z" fill="white" stroke="#28234A"/>
<path d="M171.111 199.562V215.118" stroke="#28234A"/>
<path d="M183.426 294.179L199.892 285.939" stroke="#42B837" stroke-width="2" stroke-miterlimit="10" stroke-linecap="round" stroke-linejoin="round"/>
<path d="M191.651 279.533V300.57" stroke="#42B837" stroke-width="2" stroke-miterlimit="10" stroke-linecap="round" stroke-linejoin="round"/>
<path d="M543.63 274.26L587.378 172.183L645.708 143.018" stroke="#42B837" stroke-width="0.6" stroke-miterlimit="10"/>
<path d="M645.706 122.699V137.282L587.376 166.447V151.864L645.706 122.699Z" fill="#42B837"/>
<path d="M232.385 523.159C237.223 511.362 235.328 499.413 228.154 496.472C220.98 493.53 211.243 500.71 206.406 512.507C201.568 524.305 203.463 536.253 210.637 539.194C217.811 542.136 227.548 534.957 232.385 523.159Z" fill="#42B837" stroke="#28234A" stroke-linecap="round" stroke-linejoin="round"/>
<path d="M219.363 497.461V517.833L230.565 497.782C227.705 495.589 223.748 495.282 219.363 497.461Z" fill="white" stroke="#28234A" stroke-linecap="round" stroke-linejoin="round"/>
<path d="M211.475 555.907L223.359 549.972" stroke="#28234A" stroke-miterlimit="10"/>
<path d="M227.315 548.007L235.242 544.05" stroke="#28234A" stroke-miterlimit="10"/>
<path d="M211.475 561L227.316 553.1" stroke="#28234A" stroke-miterlimit="10"/>
<path d="M279.052 497.84C283.889 486.042 281.995 474.094 274.821 471.153C267.647 468.211 257.909 475.39 253.072 487.188C248.235 498.985 250.13 510.933 257.304 513.875C264.478 516.816 274.215 509.637 279.052 497.84Z" fill="#42B837" stroke="#28234A" stroke-linecap="round" stroke-linejoin="round"/>
<path d="M277.138 472.282C274.215 469.997 270.19 469.685 265.743 471.901V492.624L277.138 501.599C280.104 496.41 281.726 490.563 281.857 484.588C281.857 478.85 280.048 474.58 277.138 472.282Z" fill="white" stroke="#28234A" stroke-linecap="round" stroke-linejoin="round"/>
<path d="M254.185 530.808L277.94 518.951" stroke="#28234A" stroke-miterlimit="10"/>
<path d="M254.185 535.902L266.069 529.98" stroke="#28234A" stroke-miterlimit="10"/>
<path fill-rule="evenodd" clip-rule="evenodd" d="M300.848 455.992C303.722 450.885 307.679 446.621 312.05 444.442V464.814H312.051H312.05L296.21 472.715C296.338 466.841 297.933 461.092 300.848 455.992Z" fill="#42B837"/>
<path d="M300.848 455.992L300.412 455.746L300.202 456.12L300.539 456.385L300.848 455.992ZM300.848 455.992L301.282 456.24L301.497 455.865L301.157 455.599L300.848 455.992ZM312.05 444.442H312.55V443.634L311.827 443.994L312.05 444.442ZM312.05 464.814H311.55V465.057L311.741 465.207L312.05 464.814ZM312.051 464.814L312.305 465.245L312.935 464.873L312.36 464.421L312.051 464.814ZM312.05 464.814L312.274 465.262L312.289 465.254L312.304 465.245L312.05 464.814ZM296.21 472.715L295.71 472.704L295.692 473.532L296.433 473.162L296.21 472.715ZM300.539 456.385L301.157 455.599L300.539 456.385ZM311.827 443.994C307.34 446.231 303.319 450.583 300.412 455.746L301.284 456.237C304.126 451.187 308.018 447.01 312.273 444.889L311.827 443.994ZM312.55 464.814V444.442H311.55V464.814H312.55ZM312.36 464.421H312.359L311.741 465.207H311.742L312.36 464.421ZM312.304 465.245H312.305L311.797 464.383V464.384L312.304 465.245ZM296.433 473.162L312.274 465.262L311.827 464.367L295.987 472.267L296.433 473.162ZM300.414 455.744C297.457 460.917 295.84 466.747 295.71 472.704L296.71 472.725C296.836 466.935 298.408 461.268 301.282 456.24L300.414 455.744Z" fill="#28234A"/>
<path d="M323.266 444.83C320.392 442.571 316.435 442.263 312.051 444.442V464.815L296.21 472.715C296.21 478.343 297.988 482.554 300.848 484.813C303.709 487.072 307.679 487.366 312.051 485.187C316.837 482.515 320.735 478.5 323.266 473.637C326.182 468.537 327.776 462.788 327.905 456.914C327.905 451.286 326.127 447.089 323.266 444.83Z" fill="white" stroke="#28234A" stroke-linecap="round" stroke-linejoin="round"/>
<path d="M300.167 503.81L304.137 501.845" stroke="#28234A" stroke-miterlimit="10"/>
<path d="M308.094 499.867L323.934 491.966" stroke="#28234A" stroke-miterlimit="10"/>
<path d="M300.167 508.904L319.978 499.038" stroke="#28234A" stroke-miterlimit="10"/>
<path d="M346.204 237.641L353.612 221.713C359.575 208.193 365.177 206.685 372.344 207.285L387.733 208.881C399.629 209.845 424.354 213.519 429.804 214.633C437.188 216.142 438.116 221.339 438.598 224.511C439.05 232.823 438.393 250.441 437.725 256.584C436.821 264.896 433.448 284.14 430.768 291.849C429.607 295.188 422.777 305.943 419.445 310.882L410.595 316.524C408.37 319.154 374.964 331.09 368.67 331.632C366.898 331.784 347.446 332.93 343.554 332.686C336.838 332.264 332.833 331.12 325.846 329.674C320.256 328.518 306.993 323.535 301.059 321.188C294.614 317.742 287.599 314.526 285.462 313.322C281.585 311.137 280.191 306.515 283.082 304.136C286.896 300.997 303.861 292.231 308.74 289.56C311.601 287.994 316.119 284.591 319.461 281.007C321.986 278.3 330.243 270.046 335.995 258.542L346.204 237.641Z" fill="white"/>
<path d="M302.958 322.205C302.379 321.894 301.741 321.553 301.059 321.188M409.808 317.025L410.595 316.524M301.059 321.188C294.614 317.742 287.599 314.526 285.462 313.322C281.585 311.137 280.191 306.515 283.082 304.136C286.896 300.997 303.861 292.231 308.74 289.56C311.601 287.994 316.119 284.591 319.461 281.007C321.986 278.3 330.243 270.046 335.995 258.542L346.204 237.641L353.612 221.713C359.575 208.193 365.177 206.685 372.344 207.285L387.733 208.881C399.629 209.845 424.354 213.519 429.804 214.633C437.188 216.142 438.116 221.339 438.598 224.511C439.05 232.823 438.393 250.441 437.725 256.584C436.821 264.896 433.448 284.14 430.768 291.849C429.607 295.188 422.777 305.943 419.445 310.882L410.595 316.524M301.059 321.188C306.993 323.535 320.256 328.518 325.846 329.674C332.833 331.12 336.838 332.264 343.554 332.686C347.446 332.93 366.898 331.784 368.67 331.632C374.964 331.09 408.37 319.154 410.595 316.524" stroke="#28234A"/>
<path d="M285.934 409.102L301.972 321.665C301.425 321.371 312.365 325.403 313.028 325.552L313.032 325.536C313.07 325.556 313.067 325.561 313.028 325.552L308.822 342.607L309.906 343.812L349.658 341.643L350.225 332.744L368.149 331.796L381.053 328.31L380.858 339.114L405.673 337.427L406.757 335.259L400.373 320.803L409.287 317.189L445.185 399.103L443.619 400.91H440.005H435.909L412.268 348.15L380.978 350.168L383.99 434.399L380.738 435.603H377.606L376.16 434.399L372.305 369.349L361.524 351.839L356.916 351.975L354.356 378.866L353.272 379.95H349.658L347.852 378.866L347.129 377.782L348.695 352.605L308.486 355.298C307.586 355.359 306.838 356.013 306.659 356.897L296.058 409.227C295.775 410.626 294.545 411.631 293.118 411.631H288.705L286.777 410.788L285.934 409.102Z" fill="white" stroke="#28234A"/>
<path d="M389.804 239.489L433.552 137.412L491.882 108.247" stroke="#42B837" stroke-width="0.6" stroke-miterlimit="10"/>
<path d="M491.88 87.9282V102.511L433.55 131.676V117.093L491.88 87.9282Z" fill="#42B837"/>
</g>
<defs>
<clipPath id="clip0_1_143">
<rect width="646" height="562" fill="white"/>
</clipPath>
</defs>
</svg>
